# xmcd
#
# Track frame offsets:
#	150
#	15500
#	30175
#	43775
#	54900
#	67737
#	83825
#	96912
#	107700
#	122137
#	136025
#	146712
#	160075
#	171687
#	184325
#	198100
#
# Disc length: 2837 seconds
#
# Revision: 2
# Processed by: cddbd v1.5.2PL0 Copyright (c) Steve Scherf et al.
# Submitted via: audiograbber 1.83.01
#
DISCID=cf0b1310
DTITLE=Various Artist - Country and Western Classics Vol.4 CD1
DYEAR=1900
DGENRE=Country
TTITLE0=Bellamy Brothers - I Need More Of You
TTITLE1=Olivia Newton John - The Banks Of The Ohio
TTITLE2=Kris Kristofferson and Rita Coolidge - Lover Please
TTITLE3=Roy Orbison - Blue Bayou
TTITLE4=Lynn Anderson - Rose Garden
TTITLE5=Eddie Rabbit - Rocky Moutain Music
TTITLE6=Ray Stevens - Misty
TTITLE7=Shaklefords - Muddy, Muddy River
TTITLE8=Charlie Rich - Almost Persuaded
TTITLE9=Glenn Campbell - Witchita Lineman
TTITLE10=Floyd Cramer - San Antonio Rose
TTITLE11=Dean Martin - Crying Time
TTITLE12=Roger Miller - Open Up Your Heart
TTITLE13=Nat King Cole - Ramblin' Rose
TTITLE14=Lee Hazlewood - I Move Around
TTITLE15=Bobby Vinton - The Last Rose
EXTD=
EXTT0=Bellamy Brothers
EXTT1=Olivia Newton-John
EXTT2=Kris Kristofferson and Rita Coolidge
EXTT3=Roy Orbison
EXTT4=Lynn Anderson
EXTT5=Eddie Rabbit
EXTT6=Ray Stevens
EXTT7=Shaklefords
EXTT8=Charlie Rich
EXTT9=Glenn Campbell
EXTT10=Floyd Cramer
EXTT11=Dean Martin
EXTT12=Roger Miller
EXTT13=Nat King Cole
EXTT14=Lee Hazlewood
EXTT15=Bobby Vinton
PLAYORDER=
